<?xml version="1.0" encoding="utf-8"?>
<!-- Generator: Adobe Illustrator 19.0.0, SVG Export Plug-In . SVG Version: 6.00 Build 0)  -->
<svg version="1.1" id="Layer_1" xmlns="http://www.w3.org/2000/svg" xmlns:xlink="http://www.w3.org/1999/xlink" x="0px" y="0px"
	 viewBox="0 0 276.3 288.8" style="enable-background:new 0 0 276.3 288.8;" xml:space="preserve">
<style type="text/css">
	.st0{clip-path:url(#XMLID_56_);}
	.st1{fill:#816B61;}
	.st2{fill:#F4952D;}
	.st3{fill:#3E3631;}
	.st4{fill:#526D85;}
	.st5{fill:#5D5B59;}
	.st6{fill:#413F3E;}
	.st7{fill:#FDDAC7;}
	.st8{fill:#6A6765;}
	.st9{fill:#967E72;}
	.st10{fill:#867065;}
	.st11{fill:#6C5B51;}
	.st12{fill:#D9B4A2;}
	.st13{fill:#A8B7D4;}
	.st14{fill:#DDE4EF;}
	.st15{fill:#C3D3ED;}
	.st16{fill:#858890;}
	.st17{fill:#F69886;}
	.st18{fill:#B4B4B4;}
	.st19{fill:url(#XMLID_66_);}
	.st20{fill:#D4D4D4;}
</style>
<g id="XMLID_54_">
	<g id="XMLID_65_">
		<defs>
			<path id="XMLID_53_" d="M55,57.4V0L163,0v50.8c39.7,18.2,67.3,58.2,67.3,104.8c0,63.6-51.6,115.2-115.2,115.2
				C51.6,270.7,0,219.1,0,155.6C0,114,22,77.6,55,57.4z"/>
		</defs>
		<clipPath id="XMLID_56_">
			<use xlink:href="#XMLID_53_"  style="overflow:visible;"/>
		</clipPath>
		<g id="XMLID_67_" class="st0">
			<g id="XMLID_96_" class="arm">
				<path id="XMLID_97_" class="st1" d="M152.7,219.5c3.5,0,7-0.3,10.6-1.1c13.2-2.9,23-11.7,28.4-25.2c9.2-23.3-5.6-54.9-8.6-61
					L153.5,147c5.5,11.1,9.9,27.8,7.5,34.1c-1.8,4.4-2.9,7.4-19.3,3.9l-6.8,32.4C140.4,218.4,146.4,219.5,152.7,219.5z"/>
			</g>
			<path id="XMLID_95_" class="st2" d="M166.2,163.3c0,1.4,1.1,2.5,2.5,2.5h3.8c1.4,0,2.5-1.1,2.5-2.5v-44.8c0-1.4-1.1-2.5-2.5-2.5
				h-3.8c-1.4,0-2.5,1.1-2.5,2.5V163.3z"/>
			<rect id="XMLID_94_" x="90.1" y="133.4" class="st3" width="41.9" height="62.7"/>
			<path id="XMLID_93_" class="st4" d="M130.3,113.7c0,0,3.1,3.6,3.1,6c0,2.4-0.4,13.7-1.8,17.2c-1.3,3.5-11.3,6.7-25.5,4.5
				c-14.3-2.2-23.2-12.6-29.2-19c-6-6.4-5.8-11.6-5.8-12.6c0-1,1.2-5.4,1.2-5.4s1.3-9,2.8-10.1C76.6,93.2,114.8,101,130.3,113.7z"/>
			<path id="XMLID_92_" class="st5" d="M63.7,70.9c0,0-8.3,9.8-8.7,13.8c-0.4,4.1,10.1,3.9,15.5,1.3C75.8,83.5,67.6,72,63.7,70.9z"
				/>
			<path id="XMLID_91_" class="st6" d="M93.5,24.2c0,0,4.9-15.7,12-18.4c7.1-2.7,13.8,2.7,11.8,9.6c-1.8,6.2-9,7.6-14.2,8.3
				C97.9,24.4,93.5,24.2,93.5,24.2z"/>
			<path id="XMLID_90_" class="st6" d="M94.8,23.7c0,0-9.5-13.4-17.1-13.7c-7.6-0.3-12.2,6.9-8.2,12.8c3.6,5.3,11,4.5,16.1,3.5
				C90.7,25.3,94.8,23.7,94.8,23.7z"/>
			<path id="XMLID_89_" class="st7" d="M138,57c0,0,3,13.8,1.9,27.3c-1.1,13.5-5.5,28.6-9,32.6c-3.4,4-8.3,7.2-19.7,4.5
				c-11.4-2.6-30.3-11.6-37.7-28.1c-7.4-16.5-5.4-43.9,12.5-53.8C101.4,31.1,133.1,32.8,138,57z"/>
			<path id="XMLID_88_" class="st1" d="M91.2,57.6c0,0,0.3,13.2-1.1,15.4c-1.4,2.2-4.5,3.4-5,7.1c-0.5,3.7-0.1,18.5-1,18.3
				c-0.8-0.1-5-2.5-5.5-4.1c-0.6-1.7-4.8-14.1-4.8-14.1l-9.8,3.9c0,0-1.5-10.1,0-19.3C65.6,55.5,86.7,53.4,91.2,57.6z"/>
			<path id="XMLID_87_" class="st5" d="M140.2,53.8c0,0,2-2.1,0.9-4.9c-1-2.8-7.4-16.9-18.9-22.4c-11.5-5.5-26.1-4.4-31.5-2.3
				c-5.4,2.1-13.9,8.7-13.9,20.6c0,11.9,10.4,17.7,12.5,17.3C91.4,61.8,115.4,49.4,140.2,53.8z"/>
			<path id="XMLID_86_" class="st8" d="M141.6,52.1c3.3,1.3,11,12.4,9.5,16.5c-1.5,4.1-14.3,8.3-32.8,3.9
				c-18.5-4.4-27.1-9.4-27.1-11C91.2,58,119.3,43.2,141.6,52.1z"/>
			<path id="XMLID_85_" class="st8" d="M92.4,23.7c0,0-2.4,1.7-4,10.2C85,51.1,91.2,60.6,91.2,61c0,0.4,0.3,1.2-1,1.9
				c-1.3,0.7-15.3,6.8-19.7,8.6c-4.4,1.8-7,2.6-7.6,1.9c-0.6-0.7-1.8-12,1.2-24.1C67.1,37.1,78.9,25.7,92.4,23.7z"/>
			<path id="XMLID_84_" class="st7" d="M73.9,80.2c-0.5-2.5-3.8-5-7.1-3.2c-3.3,1.8-5.5,6.5-3.4,12.8c2.6,7.8,12.7,9.3,12.8,5.4
				C76.2,91.2,73.9,80.2,73.9,80.2z"/>
			<path id="XMLID_83_" class="st9" d="M141.4,139.6c0,0,8,11.4,8.4,13.6c0.4,2.3,0,119,0,119H38.5c0,0,0-127.4,0-130.8
				c0-3.5,0.2-3.5,3.1-7.2c2.9-3.7,20.2-19,20.2-19l64.7,68.6L141.4,139.6z"/>
			<path id="XMLID_82_" class="st10" d="M138.3,198.4l-8.2-11.6l6.8-34l4.5-13.3c0,0,8,11.4,8.4,13.6c0.4,2.3,0,119,0,119h-11.6
				V198.4z"/>
			<path id="XMLID_81_" class="st11" d="M125.5,190.6l7.9-69.2c0,0,12.8,21.5,11.8,22.3c-1,0.8-8.9,13.2-8.9,13.2l4,12.4L128,190.6
				H125.5z"/>
			<path id="XMLID_80_" class="st1" d="M72.2,104.5l66.1,94c0,0-45.9-14.3-47.1-17.6c-1.2-3.3,0-29.4,0-29.4s-17.9-2.2-19-2.8
				C71.2,148,60.4,115,60.4,115S69.1,107.5,72.2,104.5z"/>
			<path id="XMLID_79_" class="st12" d="M152.3,144.9c0,2,1.6,3.6,3.6,3.6h0.5c2,0,3.6-1.6,3.6-3.6V134c0-2-1.6-3.6-3.6-3.6h-0.5
				c-2,0-3.6,1.6-3.6,3.6V144.9z"/>
			<path id="XMLID_78_" class="st7" d="M158.6,148.6c0,5.5,4.5,10,10,10h5.6c5.5,0,10-4.5,10-10v-17.4c0-5.5-4.5-10-10-10h-5.6
				c-5.5,0-10,4.5-10,10V148.6z"/>
			<path id="XMLID_77_" class="st13" d="M178.9,97.2c0-11.2-3-20.7-7.1-23.2c0.7-0.4,1.5-0.7,2.2-0.7c5.2,0,9.3,10.7,9.3,23.9
				c0,13.2-4.2,23.9-9.3,23.9c-0.8,0-1.5-0.2-2.2-0.7C175.9,117.9,178.9,108.5,178.9,97.2z"/>
			<path id="XMLID_76_" class="st14" d="M164.6,97.2c0-11.2,3-20.7,7.1-23.2c4.1,2.5,7.1,12,7.1,23.2s-3,20.7-7.1,23.2
				C167.7,117.9,164.6,108.5,164.6,97.2z"/>
			<path id="XMLID_75_" class="st15" d="M177.5,97.2c0-10.6-2.7-19.6-6.5-22.7c0.2-0.2,0.4-0.4,0.7-0.5c4.1,2.5,7.1,12,7.1,23.2
				s-3,20.7-7.1,23.2c-0.2-0.1-0.5-0.3-0.7-0.5C174.8,116.8,177.5,107.9,177.5,97.2z"/>
			<g id="XMLID_72_">
				<path id="XMLID_74_" class="st16" d="M166.8,73.4h7.2c0,0-1.2,0-2.2,0.7c-4.1,2.5-7.1,12-7.1,23.2s3,20.7,7.1,23.2
					c0.9,0.6,1.7,0.7,2.1,0.7h-7c-5.2,0-9.3-10.7-9.3-23.9C157.4,84.1,161.6,73.4,166.8,73.4z"/>
				<path id="XMLID_73_" class="st16" d="M173.8,121.1h0.2C174,121.1,173.9,121.1,173.8,121.1z"/>
			</g>
			<path id="XMLID_71_" class="st1" d="M130.3,98.8c0,0-3.2-3.7-8.8-2.4c-5.6,1.3-10.3,8.9-14.5,8.7c3.3,3.4,7.9,5.2,12.8,5.2
				c4.9,0,10.3-3.2,10.7-4.3c0.8,1.8,3.9,3.5,6.3,3.7c2.4,0.2,5.4-2.2,5.8-4.3c-1.1,0-2.2-2.2-4-5.2
				C136.7,97.3,132.7,96.6,130.3,98.8z"/>
			<path id="XMLID_70_" class="st17" d="M129.4,82.4c1.9-0.1,7.7,10.3,6.5,13.6c-1.2,3.4-5.4,3.4-7.6,2.4c-2.2-1-2.9-2.3-2.9-4.8
				C125.5,91.1,127.1,82.4,129.4,82.4z"/>
			<ellipse id="XMLID_69_" class="st1" cx="112.9" cy="79.8" rx="2.5" ry="3.5"/>
			<ellipse id="XMLID_68_" class="st1" cx="136.8" cy="79.8" rx="2.5" ry="3.5"/>
		</g>
	</g>
	<g id="XMLID_57_">
		<g id="XMLID_61_">
			<polygon id="XMLID_64_" class="st18" points="85.2,248.5 126.8,252.7 126.8,229.7 85.2,233.8 			"/>
			
				<linearGradient id="XMLID_66_" gradientUnits="userSpaceOnUse" x1="0" y1="241.1733" x2="149.6636" y2="241.1733" gradientTransform="matrix(-1 0 0 1 276.2793 0)">
				<stop  offset="0" style="stop-color:#FFFFFF;stop-opacity:0"/>
				<stop  offset="1" style="stop-color:#FFFFFF"/>
			</linearGradient>
			<polygon id="XMLID_63_" class="st19" points="276.3,288.8 126.6,252.7 126.6,229.6 276.3,193.6 			"/>
			<path id="XMLID_62_" class="st20" d="M123.7,253.2c0,0.8,0.7,1.5,1.5,1.5h6.6c0.8,0,1.5-0.7,1.5-1.5v-24c0-0.8-0.7-1.5-1.5-1.5
				h-6.6c-0.8,0-1.5,0.7-1.5,1.5V253.2z"/>
		</g>
		<path id="XMLID_60_" class="st7" d="M80,231.2c0,0,16.5-5.1,17.2-4.7c0.7,0.4,3.2,5.5,3.2,5.5s-1.4,4.8-1.1,6.5
			c0.4,1.7,4.1,14.9,4.2,15.3c0.1,0.4-7.2,6.1-11.2,6.3c-4,0.3-12.4-6.5-12.4-6.5V231.2z"/>
		<g id="XMLID_58_">
			<path id="XMLID_59_" class="st1" d="M81.3,260.8v-33.1c-28.1,0-32.2-11.6-34.3-25.6c-1.6-10.8,0.5-21.5,5.9-30.7
				c-5.6-25.8-10.4-38.5-10.4-38.5c-21.9,18.8-32.4,46.2-28.2,74C19.7,242.8,42.2,260.8,81.3,260.8z"/>
		</g>
	</g>
</g>
</svg>
